<svg width="32" height="30" viewBox="0 0 32 30" fill="none" xmlns="http://www.w3.org/2000/svg">
<path d="M12.2056 15.0025L21.2434 24.0403C21.4152 24.2137 21.5004 24.4206 21.4988 24.6611C21.4965 24.9009 21.409 25.1071 21.2364 25.2797C21.0638 25.4523 20.8572 25.5386 20.6167 25.5386C20.3762 25.5386 20.1696 25.4527 19.997 25.2808L11.0459 16.3333C10.8569 16.1435 10.7187 15.9326 10.6312 15.7007C10.5437 15.4672 10.5 15.234 10.5 15.0013C10.5 14.7686 10.5437 14.5359 10.6312 14.3031C10.7187 14.0704 10.8569 13.8595 11.0459 13.6705L19.9958 4.71709C20.1684 4.5445 20.3762 4.45937 20.619 4.46172C20.8611 4.46406 21.0689 4.55153 21.2423 4.72412C21.4156 4.89672 21.5015 5.10328 21.5 5.34382C21.5 5.58358 21.4141 5.79015 21.2423 5.96352L12.2056 15.0025Z" fill="black"/>
</svg>
