<svg width="82" height="85" viewBox="0 0 82 85" fill="none" xmlns="http://www.w3.org/2000/svg">
<g clip-path="url(#clip0_26_160)">
<path d="M30.2857 36.6185C31.5327 35.8608 32.1641 34.4874 32.1641 32.5617C32.1641 30.4308 31.3276 28.9945 29.6701 28.2999C28.281 27.8264 26.4815 27.5896 24.3349 27.5896H12.3859V37.7391H25.4714C27.4287 37.7391 29.0545 37.3603 30.2857 36.6185ZM28.9915 32.5617C28.9915 33.2878 28.8653 33.7614 28.6285 33.9034C27.9024 34.3453 26.8448 34.5664 25.4558 34.5664H15.5588V30.7622H24.3351C26.0872 30.7622 27.5078 30.9358 28.5495 31.2673C28.7074 31.3462 28.9914 31.4725 28.9914 32.5616V32.5617H28.9915ZM30.1439 45.6944C29.0706 45.2051 27.5394 44.9367 25.6137 44.921H12.3862V57.1384H25.4558C27.4131 57.1384 28.9601 56.87 30.0491 56.3334C32.0538 55.3389 33.0639 53.4133 33.0639 50.6194C33.0798 48.2517 32.1012 46.5942 30.1439 45.6944ZM15.5588 48.0937H25.6135C27.5393 48.1096 28.4547 48.4094 28.8336 48.5831C29.4019 48.8514 29.9069 49.1986 29.9069 50.6192C29.9069 52.8764 29.0546 53.2868 28.6442 53.4921C28.3443 53.6342 27.4603 53.9656 25.4557 53.9656H15.5587L15.5588 48.0937ZM67.2062 39.5857C65.8014 38.3861 64.0494 37.7704 61.9816 37.7704C59.7401 37.7704 57.9564 38.4176 56.7095 39.712C55.4625 40.9906 54.6733 42.7426 54.3734 44.9209L54.3575 45.0631H69.5897L69.5739 44.9367C69.4003 42.5848 68.6111 40.7854 67.2062 39.5857ZM59.014 41.8745C59.2823 41.6061 60.0083 40.9274 61.9814 40.9274C63.2126 40.9274 64.207 41.2431 65.0121 41.8745H59.014ZM81.1754 43.6108C80.7018 40.5643 79.6443 37.8335 78.0344 35.4816C76.5506 33.2718 74.7038 31.5354 72.5098 30.2727V17.6765H51.4846V30.399C50.206 31.1723 49.038 32.088 47.9489 33.177C45.4706 35.671 43.8448 38.8753 43.0398 42.7267C42.4557 41.8743 41.7612 41.1009 40.9877 40.4221C41.0785 40.3181 41.168 40.2128 41.2561 40.1065C43.1029 37.8808 44.0341 35.0081 44.0341 31.5512C44.0341 28.2523 43.1502 25.3479 41.398 22.9171C38.541 19.0182 33.8372 16.9821 27.4285 16.8716H0.5V67.856H25.8186C28.2811 67.856 30.6328 67.635 32.7796 67.1772C35.1789 66.6721 37.294 65.725 39.0777 64.3518C40.6561 63.1679 41.9662 61.6999 43.008 59.9794C43.4184 59.3322 43.7815 58.6535 44.0814 57.9432C45.1232 60.4846 46.6384 62.5839 48.6589 64.2097C52.5735 67.3666 57.151 68.9609 62.2652 68.9609C68.4843 68.9609 73.4407 67.0036 76.9921 63.1364C79.3441 60.6424 80.6858 58.0538 81.0014 55.4335L81.2066 53.6657H81.4277L81.475 50.6666C81.554 47.7306 81.4435 45.3471 81.1751 43.6109L81.1754 43.6108ZM35.4318 40.6116L35.1792 40.7377L35.4475 40.8325C37.7047 41.6533 39.4253 42.9634 40.5775 44.7472C41.7298 46.5308 42.3138 48.7248 42.3138 51.2504C42.3138 53.8706 41.6509 56.2542 40.325 58.3536C39.4885 59.7426 38.4309 60.9107 37.184 61.8578C35.7792 62.931 34.0744 63.6887 32.1645 64.0833C30.2229 64.4937 28.1078 64.699 25.8507 64.699H3.67306V20.0443H27.3028C32.7169 20.1231 36.5999 21.7174 38.8413 24.7796C40.1987 26.658 40.8775 28.931 40.8775 31.5671C40.8775 34.2662 40.183 36.4602 38.8254 38.1018C38.052 39.0174 36.9156 39.8539 35.4318 40.6116ZM61.9816 27.6838C61.1922 27.6838 60.4188 27.7154 59.677 27.7943H54.6575V20.8491H69.3529V27.7943H64.3335C63.56 27.7312 62.7708 27.6838 61.9816 27.6838ZM54.1521 50.6663C54.2942 54.0284 55.4783 56.4119 57.6881 57.7695C59.0298 58.606 60.6556 59.0322 62.5339 59.0322C64.5386 59.0322 66.1802 58.5113 67.4271 57.4854C68.1058 56.9329 68.7057 56.1753 69.2108 55.2283H77.8608C77.5924 57.1225 76.5349 59.064 74.688 61.0212C71.7521 64.2097 67.5849 65.8198 62.2813 65.8198C57.909 65.8198 53.9944 64.4623 50.6638 61.7631C47.3333 59.0797 45.6442 54.6285 45.6442 48.5671C45.6442 42.8846 47.1753 38.4492 50.1744 35.4185C52.7315 32.8456 55.9832 31.346 59.8504 30.9513H64.1596C66.1642 31.1565 68.0268 31.6301 69.7157 32.3877C72.0045 33.4136 73.9145 35.0552 75.3982 37.2651C76.7399 39.2067 77.6238 41.5112 78.0184 44.0841C78.2552 45.5993 78.3499 47.7619 78.3025 50.5399H54.152V50.6663H54.1521ZM65.4383 55.0229C64.7437 55.5911 63.7967 55.8594 62.5339 55.8594C61.2395 55.8594 60.2137 55.6069 59.3771 55.086C58.9666 54.8334 58.4615 54.4546 58.0511 53.6969H66.4327C66.1171 54.2967 65.7855 54.7387 65.4382 55.0228L65.4383 55.0229Z" fill="#1B1B1B"/>
</g>
<defs>
<clipPath id="clip0_26_160">
<rect width="81" height="84.0893" fill="white" transform="translate(0.5 0.871582)"/>
</clipPath>
</defs>
</svg>
