<svg width="32" height="33" viewBox="0 0 32 33" fill="none" xmlns="http://www.w3.org/2000/svg">
<circle cx="16.5" cy="16.2251" r="12" fill="#105DFB"/>
<path fill-rule="evenodd" clip-rule="evenodd" d="M9.5 20.5485V11.3501H13.7523C15.1181 11.3501 16.2253 12.4573 16.2253 13.8232C16.2253 14.6911 15.9585 15.2287 14.9799 15.7803C16.1509 16.3138 16.4761 17.0533 16.4761 18.0848C16.4761 19.4801 15.2365 20.5485 13.8412 20.5485H9.5ZM11.2994 12.8727V15.0846H13.4054C13.4054 15.0846 14.429 15.0846 14.429 13.9787C14.429 12.8727 13.4054 12.8727 13.4054 12.8727H11.2994ZM11.2994 18.9907V16.6023H13.5583C13.923 16.6023 14.6878 16.7906 14.6878 17.9201C14.6878 18.7577 13.9348 18.9829 13.5583 18.9907H11.2994Z" fill="white"/>
<path fill-rule="evenodd" clip-rule="evenodd" d="M20.3234 13.8846C19.0292 13.8846 17.1114 14.814 17.1114 17.2847C17.1114 18.7892 17.935 20.7202 20.4057 20.7202C22.3823 20.7202 23.2921 19.2691 23.5 18.5436H21.6411C21.547 18.873 21.1822 19.2378 20.4057 19.2378C19.2763 19.2378 18.8762 18.273 18.8174 17.7906H23.5V17.2847C23.5 14.814 21.6176 13.8846 20.3234 13.8846ZM20.3234 15.2964C19.2692 15.2964 18.8802 16.167 18.8174 16.6023H21.6411C21.6411 16.167 21.3775 15.2964 20.3234 15.2964Z" fill="white"/>
<path d="M18.0762 11.8727V13.0139H22.5117V11.8727H18.0762Z" fill="white"/>
</svg>
