<svg width="48" height="49" viewBox="0 0 48 49" fill="none" xmlns="http://www.w3.org/2000/svg">
<g filter="url(#filter0_bi_1201_2130)">
<rect y="0.225098" width="48" height="48" rx="24" fill="white" fill-opacity="0.34"/>
<path d="M22.586 15.7251C22.5856 15.5271 22.644 15.3335 22.7538 15.1688C22.8636 15.004 23.0198 14.8757 23.2027 14.7999C23.3856 14.7242 23.5869 14.7045 23.781 14.7433C23.9751 14.7821 24.1533 14.8778 24.293 15.0181L33.5 24.2181L24.293 33.4201C24.2013 33.5178 24.091 33.5962 23.9685 33.6504C23.8459 33.7047 23.7138 33.7337 23.5798 33.7359C23.4458 33.7381 23.3128 33.7133 23.1885 33.6631C23.0643 33.6128 22.9515 33.5381 22.8567 33.4434C22.7619 33.3487 22.6871 33.2359 22.6368 33.1117C22.5865 32.9875 22.5616 32.8545 22.5637 32.7205C22.5658 32.5865 22.5947 32.4543 22.6489 32.3318C22.7031 32.2092 22.7813 32.0988 22.879 32.0071L29.665 25.2251H15.5C15.2348 25.2251 14.9804 25.1197 14.7929 24.9322C14.6054 24.7447 14.5 24.4903 14.5 24.2251C14.5 23.9599 14.6054 23.7055 14.7929 23.518C14.9804 23.3304 15.2348 23.2251 15.5 23.2251H29.678L22.879 16.4311C22.7861 16.3383 22.7124 16.2281 22.6621 16.1068C22.6118 15.9854 22.586 15.8564 22.586 15.7251Z" fill="black"/>
</g>
<defs>
<filter id="filter0_bi_1201_2130" x="-8" y="-7.7749" width="64" height="64" filterUnits="userSpaceOnUse" color-interpolation-filters="sRGB">
<feFlood flood-opacity="0" result="BackgroundImageFix"/>
<feGaussianBlur in="BackgroundImageFix" stdDeviation="4"/>
<feComposite in2="SourceAlpha" operator="in" result="effect1_backgroundBlur_1201_2130"/>
<feBlend mode="normal" in="SourceGraphic" in2="effect1_backgroundBlur_1201_2130" result="shape"/>
<feColorMatrix in="SourceAlpha" type="matrix" values="0 0 0 0 0 0 0 0 0 0 0 0 0 0 0 0 0 0 127 0" result="hardAlpha"/>
<feOffset dy="1"/>
<feGaussianBlur stdDeviation="3.6"/>
<feComposite in2="hardAlpha" operator="arithmetic" k2="-1" k3="1"/>
<feColorMatrix type="matrix" values="0 0 0 0 0.780074 0 0 0 0 0.592501 0 0 0 0 0.873861 0 0 0 0.39 0"/>
<feBlend mode="normal" in2="shape" result="effect2_innerShadow_1201_2130"/>
</filter>
</defs>
</svg>
