<svg width="48" height="49" viewBox="0 0 48 49" fill="none" xmlns="http://www.w3.org/2000/svg">
<g filter="url(#filter0_bi_1201_2288)">
<rect y="0.225098" width="48" height="48" rx="24" fill="white" fill-opacity="0.34"/>
<path d="M25.414 15.7253C25.4144 15.5274 25.356 15.3337 25.2462 15.169C25.1364 15.0043 24.9802 14.8759 24.7973 14.8002C24.6144 14.7244 24.4131 14.7047 24.219 14.7435C24.0249 14.7824 23.8467 14.878 23.707 15.0183L14.5 24.2183L23.707 33.4203C23.7987 33.5181 23.909 33.5964 24.0315 33.6507C24.1541 33.7049 24.2862 33.734 24.4202 33.7362C24.5542 33.7383 24.6872 33.7136 24.8115 33.6633C24.9357 33.6131 25.0485 33.5384 25.1433 33.4437C25.2381 33.3489 25.3129 33.2361 25.3632 33.112C25.4135 32.9878 25.4384 32.8547 25.4363 32.7208C25.4342 32.5868 25.4053 32.4546 25.3511 32.332C25.2969 32.2095 25.2187 32.0991 25.121 32.0073L18.335 25.2253H32.5C32.7652 25.2253 33.0196 25.12 33.2071 24.9324C33.3946 24.7449 33.5 24.4905 33.5 24.2253C33.5 23.9601 33.3946 23.7058 33.2071 23.5182C33.0196 23.3307 32.7652 23.2253 32.5 23.2253H18.322L25.121 16.4313C25.2139 16.3385 25.2876 16.2283 25.3379 16.107C25.3882 15.9857 25.414 15.8566 25.414 15.7253Z" fill="black"/>
</g>
<defs>
<filter id="filter0_bi_1201_2288" x="-8" y="-7.7749" width="64" height="64" filterUnits="userSpaceOnUse" color-interpolation-filters="sRGB">
<feFlood flood-opacity="0" result="BackgroundImageFix"/>
<feGaussianBlur in="BackgroundImageFix" stdDeviation="4"/>
<feComposite in2="SourceAlpha" operator="in" result="effect1_backgroundBlur_1201_2288"/>
<feBlend mode="normal" in="SourceGraphic" in2="effect1_backgroundBlur_1201_2288" result="shape"/>
<feColorMatrix in="SourceAlpha" type="matrix" values="0 0 0 0 0 0 0 0 0 0 0 0 0 0 0 0 0 0 127 0" result="hardAlpha"/>
<feOffset dy="1"/>
<feGaussianBlur stdDeviation="3.6"/>
<feComposite in2="hardAlpha" operator="arithmetic" k2="-1" k3="1"/>
<feColorMatrix type="matrix" values="0 0 0 0 0.780074 0 0 0 0 0.592501 0 0 0 0 0.873861 0 0 0 0.39 0"/>
<feBlend mode="normal" in2="shape" result="effect2_innerShadow_1201_2288"/>
</filter>
</defs>
</svg>
