<svg width="24" height="25" viewBox="0 0 24 25" fill="none" xmlns="http://www.w3.org/2000/svg">
<g clip-path="url(#clip0_1201_2328)">
<path d="M21.75 0.787684H2.25C1.80756 0.783182 1.3814 0.95438 1.06504 1.26371C0.74867 1.57305 0.56794 1.99525 0.5625 2.43768V22.0164C0.568923 22.4582 0.750087 22.8795 1.06634 23.188C1.3826 23.4965 1.8082 23.6672 2.25 23.6627H21.75C22.1925 23.6662 22.6183 23.4944 22.9345 23.1849C23.2507 22.8754 23.4316 22.4533 23.4375 22.0108V2.43206C23.4296 1.99093 23.2479 1.57073 22.9319 1.26282C22.6159 0.954905 22.1912 0.784155 21.75 0.787684Z" fill="#0076B2"/>
<path d="M3.94871 9.36182H7.34434V20.2874H3.94871V9.36182ZM5.64746 3.92432C6.03692 3.92432 6.41764 4.03983 6.74144 4.25624C7.06523 4.47265 7.31757 4.78024 7.46653 5.14009C7.61548 5.49994 7.65436 5.89589 7.57824 6.27784C7.50213 6.65979 7.31444 7.01059 7.03891 7.28585C6.76339 7.56111 6.41242 7.74846 6.0304 7.82422C5.64837 7.89997 5.25246 7.86071 4.89275 7.71142C4.53304 7.56212 4.2257 7.30949 4.00959 6.98548C3.79349 6.66147 3.67834 6.28065 3.67871 5.89119C3.67921 5.36937 3.88685 4.86909 4.25601 4.50029C4.62517 4.13148 5.12564 3.92432 5.64746 3.92432ZM9.47434 9.36182H12.7293V10.8618H12.7743C13.2281 10.0031 14.3343 9.09744 15.9862 9.09744C19.425 9.08994 20.0625 11.3531 20.0625 14.2874V20.2874H16.6668V14.9718C16.6668 13.7062 16.6443 12.0768 14.9025 12.0768C13.1606 12.0768 12.8643 13.4568 12.8643 14.8893V20.2874H9.47434V9.36182Z" fill="white"/>
</g>
<defs>
<clipPath id="clip0_1201_2328">
<rect width="24" height="24" fill="white" transform="translate(0 0.225098)"/>
</clipPath>
</defs>
</svg>
