<svg width="25" height="25" viewBox="0 0 25 25" fill="none" xmlns="http://www.w3.org/2000/svg">
<g clip-path="url(#clip0_1201_2024)">
<path d="M8.40157 1.28943C6.0036 2.12131 3.93559 3.70024 2.5013 5.79431C1.06702 7.88838 0.342053 10.3872 0.432899 12.9237C0.523744 15.4603 1.42561 17.9008 3.00603 19.8869C4.58644 21.873 6.7621 23.3 9.21344 23.9582C11.2008 24.471 13.283 24.4935 15.2809 24.0238C17.0909 23.6173 18.7643 22.7476 20.1372 21.5001C21.5661 20.162 22.6033 18.4597 23.1372 16.5763C23.7175 14.5282 23.8208 12.3743 23.4391 10.2801H12.2791V14.9094H18.7422C18.613 15.6478 18.3362 16.3525 17.9284 16.9814C17.5205 17.6102 16.9899 18.1504 16.3684 18.5694C15.5792 19.0915 14.6896 19.4428 13.7566 19.6007C12.8208 19.7747 11.861 19.7747 10.9253 19.6007C9.97692 19.4046 9.07975 19.0132 8.29094 18.4513C7.02372 17.5543 6.07221 16.2799 5.57219 14.8101C5.06372 13.3127 5.06372 11.6893 5.57219 10.1919C5.92812 9.14234 6.51651 8.18669 7.29344 7.39631C8.18255 6.47521 9.30819 5.8168 10.5469 5.49333C11.7855 5.16985 13.0894 5.1938 14.3153 5.56256C15.273 5.85654 16.1488 6.37019 16.8728 7.06256C17.6016 6.33756 18.3291 5.61068 19.0553 4.88193C19.4303 4.49006 19.8391 4.11693 20.2084 3.71568C19.1033 2.6872 17.806 1.88691 16.3909 1.36068C13.8141 0.425038 10.9947 0.399894 8.40157 1.28943Z" fill="white"/>
<path d="M8.40172 1.28937C10.9946 0.399224 13.8141 0.423707 16.3911 1.35874C17.8064 1.88855 19.1031 2.69269 20.2067 3.72499C19.8317 4.12624 19.4361 4.50124 19.0536 4.89124C18.3261 5.61749 17.5992 6.34124 16.873 7.06249C16.1489 6.37012 15.2732 5.85648 14.3155 5.56249C13.0899 5.19244 11.7861 5.16711 10.5471 5.48926C9.30813 5.81141 8.1818 6.46861 7.29172 7.38874C6.51478 8.17912 5.92639 9.13477 5.57047 10.1844L1.68359 7.17499C3.07486 4.41604 5.48375 2.30566 8.40172 1.28937Z" fill="#E33629"/>
<path d="M0.652417 10.1563C0.861331 9.12091 1.20817 8.11822 1.68367 7.17505L5.57054 10.1919C5.06207 11.6893 5.06207 13.3127 5.57054 14.81C4.27554 15.81 2.97992 16.815 1.68367 17.825C0.493324 15.4556 0.13029 12.756 0.652417 10.1563Z" fill="#F8BD00"/>
<path d="M12.2792 10.2781H23.4392C23.8209 12.3723 23.7176 14.5262 23.1373 16.5743C22.6033 18.4577 21.5662 20.16 20.1373 21.4981C18.8829 20.5193 17.6229 19.5481 16.3685 18.5693C16.9904 18.1498 17.5212 17.6091 17.9291 16.9796C18.337 16.35 18.6136 15.6446 18.7423 14.9056H12.2792C12.2773 13.3643 12.2792 11.8212 12.2792 10.2781Z" fill="#587DBD"/>
<path d="M1.68164 17.8251C2.97789 16.8251 4.27352 15.8201 5.56852 14.8101C6.06953 16.2804 7.0224 17.5549 8.29102 18.4513C9.08228 19.0106 9.98139 19.3988 10.931 19.5913C11.8667 19.7653 12.8265 19.7653 13.7623 19.5913C14.6953 19.4334 15.5849 19.0821 16.3741 18.5601C17.6285 19.5388 18.8885 20.5101 20.1429 21.4888C18.7702 22.737 17.0968 23.6073 15.2866 24.0144C13.2887 24.4841 11.2065 24.4616 9.21914 23.9488C7.64733 23.5291 6.17916 22.7893 4.90664 21.7757C3.55976 20.7063 2.45968 19.3588 1.68164 17.8251Z" fill="#319F43"/>
</g>
<defs>
<clipPath id="clip0_1201_2024">
<rect width="24" height="24" fill="white" transform="translate(0.0410156 0.5)"/>
</clipPath>
</defs>
</svg>
