<svg width="24" height="25" viewBox="0 0 24 25" fill="none" xmlns="http://www.w3.org/2000/svg">
<path d="M12 15.8021L8.461 12.2641L9.169 11.5441L11.5 13.8751V5.2251H12.5V13.8751L14.83 11.5451L15.539 12.2641L12 15.8021ZM6.616 19.2251C6.15533 19.2251 5.771 19.0711 5.463 18.7631C5.155 18.4551 5.00067 18.0704 5 17.6091V15.1861H6V17.6091C6 17.7631 6.064 17.9044 6.192 18.0331C6.32 18.1618 6.461 18.2258 6.615 18.2251H17.385C17.5383 18.2251 17.6793 18.1611 17.808 18.0331C17.9367 17.9051 18.0007 17.7638 18 17.6091V15.1861H19V17.6091C19 18.0698 18.846 18.4541 18.538 18.7621C18.23 19.0701 17.8453 19.2244 17.384 19.2251H6.616Z" fill="#635BFF"/>
</svg>
