<svg width="24" height="25" viewBox="0 0 24 25" fill="none" xmlns="http://www.w3.org/2000/svg">
<path fill-rule="evenodd" clip-rule="evenodd" d="M24 12.2251C24 18.8525 18.6274 24.2251 12 24.2251C5.37258 24.2251 0 18.8525 0 12.2251C0 5.59768 5.37258 0.225098 12 0.225098C18.6274 0.225098 24 5.59768 24 12.2251ZM16.2206 21.6078C14.9328 22.188 13.5041 22.5108 12 22.5108C9.51692 22.5108 7.23935 21.6309 5.46206 20.166C7.31095 17.0634 10.2847 14.711 13.8197 13.6703C14.8351 16.2178 15.6423 18.8706 16.2206 21.6078ZM17.7846 20.7313C17.2149 18.1695 16.4512 15.6809 15.5095 13.2817C16.2934 13.1505 17.0986 13.0822 17.9196 13.0822C19.4028 13.0822 20.8326 13.3048 22.1782 13.7178C21.7549 16.6293 20.1121 19.1454 17.7846 20.7313ZM22.2824 11.9622C20.8936 11.5749 19.4302 11.368 17.9196 11.368C16.8667 11.368 15.8372 11.4684 14.8402 11.6602C14.5802 11.0601 14.3089 10.466 14.0265 9.87822C16.2706 8.88213 18.3445 7.57237 20.1923 6.00473C21.4566 7.66716 22.2263 9.72607 22.2824 11.9622ZM19.0445 4.73035C17.3098 6.1958 15.3632 7.41785 13.2572 8.34401C12.1455 6.21812 10.8872 4.1811 9.49576 2.24638C10.2974 2.04585 11.1362 1.93938 12 1.93938C14.7258 1.93938 17.204 2.99969 19.0445 4.73035ZM7.80217 2.83219C4.78263 4.18373 2.53377 6.94853 1.89694 10.2852C2.4821 10.3282 3.07325 10.3501 3.66966 10.3501C6.47073 10.3501 9.15862 9.86725 11.6549 8.98009C10.5211 6.83121 9.2319 4.77693 7.80217 2.83219ZM1.7169 11.9909C1.71516 12.0687 1.71429 12.1468 1.71429 12.2251C1.71429 14.7897 2.65289 17.1351 4.20532 18.9365C6.25031 15.6959 9.41314 13.2297 13.1531 12.0804C12.9222 11.5559 12.6823 11.0363 12.4337 10.5217C9.70008 11.5197 6.74827 12.0644 3.66966 12.0644C3.0128 12.0644 2.36158 12.0396 1.7169 11.9909Z" fill="#E84C88"/>
</svg>
