<svg width="24" height="20" viewBox="0 0 24 20" fill="none" xmlns="http://www.w3.org/2000/svg">
<path d="M18.5981 2.61377L12.0666 7.71106L5.38574 2.61377V2.61515L5.39381 2.62204V9.75962L11.9913 14.9671L18.5981 9.96076V2.61377Z" fill="#EA4335"/>
<path d="M20.3164 1.37367L18.6011 2.61355V9.96054L23.9985 5.81658V3.32028C23.9985 3.32028 23.3433 -0.245066 20.3164 1.37367Z" fill="#FBBC05"/>
<path d="M18.6011 9.96037V19.4895H22.7379C22.7379 19.4895 23.9151 19.3683 23.9998 18.0265V5.81641L18.6011 9.96037Z" fill="#34A853"/>
<path d="M5.39412 19.4979V9.75933L5.38574 9.75244L5.39412 19.4979Z" fill="#C5221F"/>
<path d="M5.38984 2.61509L3.68397 1.38209C0.657004 -0.236641 0.000488281 3.32733 0.000488281 3.32733V5.82362L5.38984 9.75267V2.61509Z" fill="#C5221F"/>
<path d="M5.38574 2.61523V9.75282L5.39412 9.75971V2.62212L5.38574 2.61523Z" fill="#C5221F"/>
<path d="M0.000488281 5.8252V18.0353C0.0838981 19.3785 1.2624 19.4983 1.2624 19.4983H5.39925L5.38984 9.75286L0.000488281 5.8252Z" fill="#4285F4"/>
</svg>
