<svg width="76" height="76" viewBox="0 0 76 76" fill="none" xmlns="http://www.w3.org/2000/svg">
<g clip-path="url(#clip0_26_154)">
<path d="M73.552 73.8569H58.3217C57.2444 73.8569 56.3737 72.9862 56.3737 71.9089V47.3811C56.3737 38.9691 52.0349 38.9691 50.6034 38.9691C46.7515 38.9691 45.1134 42.0093 44.5821 43.3228C44.3312 43.9132 44.2131 44.9166 44.2131 46.3187V71.9238C44.2131 73.0012 43.3424 73.8718 42.2652 73.8718H27.0202C26.5036 73.8718 26.0018 73.6652 25.6329 73.2964C25.264 72.9275 25.0574 72.4255 25.0721 71.909C25.0721 71.4958 25.2787 30.3653 25.0721 26.1593C25.0426 25.628 25.2344 25.1114 25.6034 24.7277C25.9724 24.344 26.4741 24.1226 27.0201 24.1226H42.2652C43.3424 24.1226 44.2131 24.9933 44.2131 26.0706V27.2217C46.781 24.9343 50.4853 23.0452 56.0047 23.0452C68.2096 23.0452 75.5 31.4867 75.5 45.6249V71.9089C75.5 72.9862 74.6293 73.8569 73.552 73.8569ZM60.2698 69.9609L71.6187 69.9606V45.6247C71.6187 33.7445 65.9369 26.9411 56.0195 26.9411C49.3932 26.9411 46.176 30.2469 44.1541 33.2723C43.918 34.0692 43.1653 34.6596 42.2799 34.6596H42.1766C41.4682 34.6596 40.8188 34.2759 40.4795 33.6561C40.2139 33.169 40.1548 32.6082 40.3319 32.0917V28.0038H29.0125C29.1158 36.1355 29.0125 62.4491 28.983 69.9461H40.3171V46.3037C40.3171 44.341 40.5237 42.9242 40.9664 41.8469C42.6784 37.6113 46.2792 35.0582 50.5886 35.0582C56.7279 35.0582 60.255 39.5447 60.255 47.3664V69.9608H60.2699L60.2698 69.9609ZM18.5934 73.8566H3.34837C2.27103 73.8566 1.40038 72.9859 1.40038 71.9086V26.0705C1.40038 24.9931 2.27103 24.1224 3.34837 24.1224H18.5934C19.6707 24.1224 20.5414 24.9931 20.5414 26.0704V71.9087C20.5414 72.986 19.6707 73.8567 18.5934 73.8567V73.8566ZM5.2965 69.9607H16.6453V28.0184H5.29657V69.9606L5.2965 69.9607ZM10.9782 21.761L10.8748 21.761C4.86835 21.761 0.5 17.5992 0.5 11.8731C0.5 6.16182 4.94215 2 11.0815 2C17.1175 2 21.4269 6.04365 21.545 11.8288C21.545 17.5992 17.1028 21.761 10.9782 21.761ZM11.0815 5.91092C7.08203 5.91092 4.39612 8.31649 4.39612 11.888C4.39612 15.4003 7.0526 17.8649 10.8749 17.8649H10.9782C14.9629 17.8649 17.6488 15.4593 17.6488 11.8879C17.575 8.2722 14.9924 5.91092 11.0815 5.91092Z" fill="#1B1B1B"/>
</g>
<defs>
<clipPath id="clip0_26_154">
<rect width="75" height="75.8718" fill="white" transform="translate(0.5)"/>
</clipPath>
</defs>
</svg>
