<svg width="24" height="25" viewBox="0 0 24 25" fill="none" xmlns="http://www.w3.org/2000/svg">
<g clip-path="url(#clip0_1201_1995)">
<path d="M21.6562 0.5H2.34375C1.04933 0.5 0 1.54933 0 2.84375V22.1562C0 23.4507 1.04933 24.5 2.34375 24.5H21.6562C22.9507 24.5 24 23.4507 24 22.1562V2.84375C24 1.54933 22.9507 0.5 21.6562 0.5Z" fill="url(#paint0_linear_1201_1995)"/>
<path d="M19.7551 3.62H14.6851C14.0637 3.62 13.5601 4.12367 13.5601 4.745V12.995C13.5601 13.6163 14.0637 14.12 14.6851 14.12H19.7551C20.3764 14.12 20.8801 13.6163 20.8801 12.995V4.745C20.8801 4.12367 20.3764 3.62 19.7551 3.62Z" fill="white"/>
<path d="M9.31512 3.62H4.24512C3.6238 3.62 3.12012 4.12367 3.12012 4.745V18.995C3.12012 19.6163 3.6238 20.12 4.24512 20.12H9.31512C9.93644 20.12 10.4401 19.6163 10.4401 18.995V4.745C10.4401 4.12367 9.93644 3.62 9.31512 3.62Z" fill="white"/>
</g>
<defs>
<linearGradient id="paint0_linear_1201_1995" x1="1200" y1="0.5" x2="1200" y2="2400.5" gradientUnits="userSpaceOnUse">
<stop stop-color="#0091E6"/>
<stop offset="1" stop-color="#0079BF"/>
</linearGradient>
<clipPath id="clip0_1201_1995">
<rect width="24" height="24" fill="white" transform="translate(0 0.5)"/>
</clipPath>
</defs>
</svg>
