<svg width="24" height="25" viewBox="0 0 24 25" fill="none" xmlns="http://www.w3.org/2000/svg">
<g clip-path="url(#clip0_1201_2007)">
<path d="M5.04761 15.6238C5.04761 17.0143 3.92382 18.1382 2.53332 18.1382C1.14282 18.1382 0.019043 17.0143 0.019043 15.6238C0.019043 14.2334 1.14282 13.1096 2.53342 13.1096H5.04751V15.6239L5.04761 15.6238ZM6.30479 15.6238C6.30479 14.2334 7.42857 13.1096 8.81907 13.1096C10.2096 13.1096 11.3334 14.2334 11.3334 15.6239V21.9096C11.3334 23.3001 10.2096 24.4239 8.81898 24.4239C7.42867 24.4239 6.30479 23.3001 6.30479 21.9096V15.6238Z" fill="#E01E5A"/>
<path d="M8.81906 5.52856C7.42856 5.52856 6.30469 4.40478 6.30469 3.01428C6.30469 1.62378 7.42866 0.5 8.81906 0.5C10.2095 0.5 11.3333 1.62378 11.3333 3.01428V5.52866H8.81897L8.81906 5.52856ZM8.81906 6.80478C10.2096 6.80478 11.3333 7.92856 11.3333 9.31906C11.3333 10.7096 10.2096 11.8333 8.81897 11.8333H2.51438C1.12378 11.8333 0 10.7096 0 9.31897C0 7.92866 1.12378 6.80478 2.51428 6.80478H8.81906Z" fill="#36C5F0"/>
<path d="M18.8951 9.31906C18.8951 7.92856 20.0189 6.80469 21.4093 6.80469C22.7998 6.80469 23.9237 7.92856 23.9237 9.31906C23.9237 10.7096 22.7998 11.8333 21.4093 11.8333H18.8951V9.31906ZM17.6379 9.31906C17.6379 10.7096 16.5141 11.8333 15.1236 11.8333C13.7332 11.8333 12.6094 10.7096 12.6094 9.31897V3.01438C12.6094 1.62378 13.7332 0.5 15.1236 0.5C16.514 0.5 17.6378 1.62378 17.6378 3.01428V9.31897L17.6379 9.31906Z" fill="#2EB67D"/>
<path d="M15.1236 19.3954C16.5141 19.3954 17.6379 20.5192 17.6379 21.9096C17.6379 23.3001 16.5141 24.4239 15.1236 24.4239C13.7332 24.4239 12.6094 23.3001 12.6094 21.9096V19.3954H15.1236ZM15.1236 18.1382C13.7332 18.1382 12.6094 17.0143 12.6094 15.6238C12.6094 14.2334 13.7332 13.1096 15.1237 13.1096H21.4283C22.8188 13.1096 23.9427 14.2334 23.9427 15.6239C23.9427 17.0143 22.8188 18.1382 21.4283 18.1382H15.1236Z" fill="#ECB22E"/>
</g>
<defs>
<clipPath id="clip0_1201_2007">
<rect width="24" height="24" fill="white" transform="translate(0 0.5)"/>
</clipPath>
</defs>
</svg>
