<svg width="22" height="25" viewBox="0 0 22 25" fill="none" xmlns="http://www.w3.org/2000/svg">
<g clip-path="url(#clip0_1201_2018)">
<path d="M18.3922 5.21294C18.3757 5.09294 18.2705 5.02653 18.1837 5.01921C17.5431 4.97107 16.9024 4.92332 16.2618 4.87595C16.2618 4.87595 14.9872 3.61061 14.8473 3.47055C14.7074 3.33058 14.434 3.37316 14.3279 3.40439C14.3123 3.40899 14.0494 3.49011 13.6146 3.62466C13.1889 2.39951 12.4375 1.27365 11.1156 1.27365C11.0791 1.27365 11.0415 1.27513 11.004 1.27727C10.628 0.780087 10.1623 0.564087 9.76008 0.564087C6.68077 0.564087 5.20961 4.41354 4.74835 6.3697C3.55181 6.74047 2.70178 7.00406 2.5932 7.03817C1.92531 7.24768 1.90419 7.26872 1.81649 7.89806C1.75049 8.37453 0.00292969 21.8892 0.00292969 21.8892L13.6203 24.4406L20.9987 22.8445C20.9987 22.8445 18.4085 5.33294 18.3922 5.21294ZM12.862 3.85743L11.7098 4.21406C11.7102 4.13285 11.7106 4.05296 11.7106 3.96559C11.7106 3.20417 11.6049 2.5911 11.4353 2.1051C12.1164 2.19058 12.5701 2.96557 12.862 3.85743ZM10.5904 2.25609C10.7798 2.73058 10.9029 3.41154 10.9029 4.33044C10.9029 4.37746 10.9025 4.42044 10.9021 4.46392C10.1527 4.69603 9.33844 4.94803 8.52235 5.20085C8.98057 3.43242 9.83948 2.57828 10.5904 2.25609ZM9.6755 1.39003C9.80841 1.39003 9.9423 1.43516 10.0704 1.52335C9.08356 1.98773 8.02575 3.15732 7.57904 5.49296L5.698 6.07554C6.22123 4.29403 7.46372 1.39003 9.6755 1.39003Z" fill="#95BF46"/>
<path d="M18.1838 5.01911C17.5432 4.97098 16.9026 4.92322 16.2619 4.87585C16.2619 4.87585 14.9874 3.61051 14.8475 3.47046C14.7951 3.41835 14.7245 3.39163 14.6507 3.38013L13.6211 24.4404L20.9988 22.8444C20.9988 22.8444 18.4086 5.33284 18.3923 5.21284C18.3758 5.09284 18.2707 5.02643 18.1838 5.01911Z" fill="#5E8E3E"/>
<path d="M11.1158 9.09605L10.206 11.8023C10.206 11.8023 9.40889 11.3769 8.4318 11.3769C6.99936 11.3769 6.92728 12.2758 6.92728 12.5023C6.92728 13.7383 10.1492 14.2119 10.1492 17.107C10.1492 19.3848 8.70451 20.8515 6.75656 20.8515C4.41903 20.8515 3.22363 19.3967 3.22363 19.3967L3.84952 17.3288C3.84952 17.3288 5.07829 18.3837 6.11514 18.3837C6.79265 18.3837 7.06824 17.8503 7.06824 17.4605C7.06824 15.8483 4.42495 15.7764 4.42495 13.1271C4.42495 10.8973 6.02539 8.7395 9.25602 8.7395C10.5008 8.7395 11.1158 9.09605 11.1158 9.09605Z" fill="white"/>
</g>
<defs>
<clipPath id="clip0_1201_2018">
<rect width="21.0411" height="24" fill="white" transform="translate(0 0.5)"/>
</clipPath>
</defs>
</svg>
