<svg width="86" height="91" viewBox="0 0 86 91" fill="none" xmlns="http://www.w3.org/2000/svg">
<path fill-rule="evenodd" clip-rule="evenodd" d="M8 25.8716V65.8716C8 68.5238 9.05357 71.0673 10.9289 72.9427C12.8043 74.818 15.3478 75.8716 18 75.8716H68C70.6522 75.8716 73.1957 74.818 75.0711 72.9427C76.9464 71.0673 78 68.5238 78 65.8716V25.8716C78 23.2194 76.9464 20.6759 75.0711 18.8005C73.1957 16.9252 70.6522 15.8716 68 15.8716H18C15.3478 15.8716 12.8043 16.9252 10.9289 18.8005C9.05357 20.6759 8 23.2194 8 25.8716Z" stroke="#1B1B1B" stroke-width="4" stroke-linecap="round" stroke-linejoin="round"/>
<path d="M18 30.8711L43 45.8711L68 30.8711" stroke="#1B1B1B" stroke-width="4" stroke-linecap="round" stroke-linejoin="round"/>
</svg>
