<svg width="24" height="25" viewBox="0 0 24 25" fill="none" xmlns="http://www.w3.org/2000/svg">
<g clip-path="url(#clip0_1201_2016)">
<path d="M4.45877 4.708C5.20477 5.314 5.48477 5.268 6.88677 5.174L20.1018 4.381C20.3818 4.381 20.1488 4.101 20.0558 4.055L17.8598 2.468C17.4398 2.142 16.8788 1.768 15.8048 1.861L3.00977 2.795C2.54377 2.841 2.44977 3.075 2.63577 3.261L4.45877 4.708ZM5.25177 7.788V21.692C5.25177 22.439 5.62477 22.719 6.46577 22.672L20.9888 21.832C21.8298 21.786 21.9238 21.272 21.9238 20.665V6.854C21.9238 6.248 21.6908 5.921 21.1758 5.967L5.99877 6.854C5.43877 6.901 5.25177 7.182 5.25177 7.788ZM19.5888 8.533C19.6818 8.953 19.5888 9.373 19.1688 9.421L18.4688 9.561V19.825C17.8608 20.152 17.3008 20.339 16.8338 20.339C16.0858 20.339 15.8988 20.105 15.3388 19.406L10.7618 12.22V19.172L12.2098 19.5C12.2098 19.5 12.2098 20.34 11.0418 20.34L7.81977 20.526C7.72677 20.34 7.81977 19.873 8.14677 19.78L8.98677 19.547V10.354L7.82177 10.26C7.72777 9.84 7.96177 9.234 8.61477 9.187L12.0708 8.954L16.8348 16.233V9.793L15.6198 9.654C15.5268 9.14 15.8998 8.767 16.3668 8.721L19.5888 8.533ZM1.93577 1.535L15.2458 0.554996C16.8798 0.414996 17.3008 0.507996 18.3278 1.255L22.5768 4.241C23.2768 4.754 23.5108 4.894 23.5108 5.454V21.832C23.5108 22.858 23.1378 23.466 21.8308 23.558L6.37277 24.492C5.39277 24.539 4.92477 24.399 4.41077 23.745L1.28177 19.685C0.72177 18.938 0.48877 18.379 0.48877 17.725V3.167C0.48877 2.328 0.86277 1.627 1.93577 1.535Z" fill="black"/>
</g>
<defs>
<clipPath id="clip0_1201_2016">
<rect width="24" height="24" fill="white" transform="translate(0 0.5)"/>
</clipPath>
</defs>
</svg>
