<svg width="35" height="35" viewBox="0 0 35 35" fill="none" xmlns="http://www.w3.org/2000/svg">
<path d="M8.41414 18.4178V6.15877C7.95323 6.56174 7.54656 6.93793 7.17898 7.30643C4.4638 10.0285 2.99029 13.8041 3.04213 17.6485C3.07164 19.8373 3.5776 22.1108 4.5714 24.0611C5.23325 25.36 6.05241 26.4623 7.35311 27.8478C9.78833 30.0409 11.3579 30.9181 14.6615 31.6198C16.6303 31.8535 17.7564 31.8816 19.73 31.7377L21.4981 33.6237C19.6128 34.0717 18.4795 34.1542 16.3116 33.9774C13.9565 33.8136 12.7133 33.5187 10.6538 32.5629C7.93339 31.1666 6.60794 30.1103 4.5241 27.8478C2.7919 25.5222 2.08075 24.0183 1.22375 21.0111C0.657773 17.2688 0.828378 15.3101 1.81313 12.0525C2.70431 9.71045 3.41377 8.44254 5.11364 6.27665C7.0076 4.37745 8.20288 3.47568 10.6538 2.26889V11.4632C12.5815 9.92595 13.6007 9.22353 15.6045 8.75203C17.6084 8.28053 19.194 8.45865 21.4983 9.45928C23.5137 10.6607 24.4433 11.5831 25.6239 13.8207C26.3005 15.3429 26.5034 17.0902 26.2074 18.8828C25.9677 20.3347 25.3105 21.6915 24.4272 22.8685C23.2876 24.3868 22.1176 25.1904 20.2017 26.0797L24.4452 30.0875C26.3247 28.8576 27.3037 28.0859 28.8066 26.4333C30.1832 24.5124 30.7673 23.3179 31.5177 21.0111C32.2473 16.7752 31.9892 14.6458 30.1032 10.7559C28.2172 6.86602 25.9774 5.21577 23.1484 4.03702C21.0266 3.09402 17.0919 2.63649 12.8934 3.6834V1.32588C15.5311 0.856888 18.787 0.854386 20.3196 1.09013C24.6371 1.75429 26.9696 3.26669 30.1032 6.5124C33.6393 11.3453 34.419 14.3093 33.9931 19.4787C32.7473 25.8214 30.6911 28.7616 25.1144 32.0763C24.3767 32.5148 23.4374 32.3802 22.8306 31.7734L14.6615 23.6043C18.3589 24.8368 21.5856 23.7854 23.1702 20.9544C24.7311 18.1658 24.2037 14.2647 21.7691 12.1944C21.1063 11.6308 20.3332 11.2635 19.3836 11.0042C18.1478 10.6668 16.831 10.6455 15.5918 10.9705C14.8127 11.1748 14.1591 11.457 13.5904 11.848C10.6537 13.867 10.6537 18.0983 10.6538 21.6673V21.7085V23.2507C9.5265 21.8846 9.02227 20.8507 8.41414 18.4178Z" fill="black"/>
</svg>
