<svg width="33" height="33" viewBox="0 0 33 33" fill="none" xmlns="http://www.w3.org/2000/svg">
<path fill-rule="evenodd" clip-rule="evenodd" d="M28.2787 6.27881C28.381 6.17654 28.4622 6.05512 28.5175 5.92149C28.5729 5.78787 28.6013 5.64465 28.6013 5.50001C28.6013 5.35537 28.5729 5.21215 28.5175 5.07853C28.4622 4.9449 28.381 4.82348 28.2787 4.72121C28.1765 4.61894 28.0551 4.53781 27.9214 4.48246C27.7878 4.42711 27.6446 4.39862 27.4999 4.39862C27.3553 4.39862 27.2121 4.42711 27.0785 4.48246C26.9448 4.53781 26.8234 4.61894 26.7211 4.72121L16.4999 14.9446L6.27875 4.72121C6.17648 4.61894 6.05506 4.53781 5.92143 4.48246C5.78781 4.42711 5.64459 4.39862 5.49995 4.39862C5.35531 4.39862 5.21209 4.42711 5.07847 4.48246C4.94484 4.53781 4.82342 4.61894 4.72115 4.72121C4.61888 4.82348 4.53775 4.9449 4.4824 5.07853C4.42705 5.21215 4.39856 5.35537 4.39856 5.50001C4.39856 5.64465 4.42705 5.78787 4.4824 5.92149C4.53775 6.05512 4.61888 6.17654 4.72115 6.27881L14.9445 16.5L4.72115 26.7212C4.5146 26.9278 4.39856 27.2079 4.39856 27.5C4.39856 27.7921 4.5146 28.0723 4.72115 28.2788C4.9277 28.4854 5.20784 28.6014 5.49995 28.6014C5.79206 28.6014 6.0722 28.4854 6.27875 28.2788L16.4999 18.0554L26.7211 28.2788C26.9277 28.4854 27.2078 28.6014 27.4999 28.6014C27.7921 28.6014 28.0722 28.4854 28.2787 28.2788C28.4853 28.0723 28.6013 27.7921 28.6013 27.5C28.6013 27.2079 28.4853 26.9278 28.2787 26.7212L18.0553 16.5L28.2787 6.27881Z" fill="white"/>
</svg>
