<svg width="51" height="50" viewBox="0 0 51 50" fill="none" xmlns="http://www.w3.org/2000/svg">
<path d="M25.5001 31.1979C25.2223 31.1979 24.9536 31.1458 24.6938 31.0417C24.4327 30.9375 24.2154 30.7986 24.0417 30.625L14.4584 21.0417C14.0765 20.6597 13.8855 20.1736 13.8855 19.5833C13.8855 18.9931 14.0765 18.5069 14.4584 18.125C14.8404 17.7431 15.3265 17.5521 15.9167 17.5521C16.507 17.5521 16.9931 17.7431 17.3751 18.125L25.5001 26.25L33.6251 18.125C34.007 17.7431 34.4931 17.5521 35.0834 17.5521C35.6737 17.5521 36.1598 17.7431 36.5417 18.125C36.9237 18.5069 37.1147 18.9931 37.1147 19.5833C37.1147 20.1736 36.9237 20.6597 36.5417 21.0417L26.9584 30.625C26.7501 30.8333 26.5244 30.9806 26.2813 31.0667C26.0383 31.1542 25.7779 31.1979 25.5001 31.1979Z" fill="white"/>
</svg>
